#!OML:ASF F:\VICON\USERDATA\INSTALL\rory3\rory3.ASF
:FULLY-SPECIFIED
:DEGREES
1587
root 0.128361 15.039 -2.59092 13.6883 1.45171 -3.75395
lowerback 37.4854 1.23732 -5.91434
upperback 12.4056 -1.07181 -6.51625
thorax -4.73587 -0.416736 -3.43373
lowerneck -8.72007 -8.2251 -11.429
upperneck 14.0184 -12.4957 18.4444
head 7.67443 -5.34123 6.71885
rclavicle -2.38542e-014 1.27222e-014
rhumerus 2.18872 18.1707 -15.7484
rradius 137.673
rwrist -37.7223
rhand 29.2596 11.7523
rfingers 7.12502
rthumb 53.0401 -7.71466
lclavicle -2.38542e-014 1.27222e-014
lhumerus 46.6549 -9.95256 52.6635
lradius 73.9537
lwrist -6.60808
lhand -11.172 11.9042
lfingers 7.12502
lthumb 14.8548 41.3517
rfemur -46.0921 5.56299 17.9121
rtibia 50.8061
rfoot -13.949 -9.26199
rtoes -17.9682
lfemur -47.1776 0.335889 -10.3014
ltibia 50.6351
lfoot -11.4359 -3.23061
ltoes -13.1954
1588
root 0.132327 15.043 -2.60471 13.8381 1.64947 -3.57161
lowerback 37.4635 1.09883 -6.20396
upperback 12.4608 -1.29448 -6.14664
thorax -4.64422 -0.542596 -2.81217
lowerneck -8.70704 -7.97372 -11.9707
upperneck 13.093 -12.0113 18.855
head 7.35919 -5.14369 7.00144
rclavicle 6.36111e-015 -3.18055e-015
rhumerus 5.80193 15.1334 -14.1317
rradius 137.267
rwrist -38.4951
rhand 29.4508 11.4888
rfingers 7.12502
rthumb 53.2126 -7.86808
lclavicle 6.36111e-015 -3.18055e-015
lhumerus 45.674 -10.1929 52.1507
lradius 72.0491
lwrist -5.87672
lhand -9.49657 13.415
lfingers 7.12502
lthumb 16.4684 42.736
rfemur -46.2406 5.40825 17.6746
rtibia 50.7341
rfoot -13.9174 -9.33324
rtoes -17.8417
lfemur -47.3668 0.119161 -10.488
ltibia 50.4296
lfoot -11.2634 -3.179
ltoes -13.5716
1589
root 0.135838 15.0483 -2.61637 13.9471 1.76653 -3.55121
lowerback 37.5148 1.0579 -6.03885
upperback 12.4572 -1.27361 -5.94701
thorax -4.66529 -0.534618 -2.69285
lowerneck -8.68688 -7.85277 -11.9104
upperneck 12.4209 -11.7977 19.0877
head 7.1196 -5.04805 7.08681
rclavicle 6.36111e-015 -1.43125e-014
rhumerus 8.48379 12.3221 -13.2733
rradius 136.579
rwrist -38.1518
rhand 29.0151 11.5895
rfingers 7.12502
rthumb 52.8194 -8.01655
lclavicle 6.36111e-015 -1.43125e-014
lhumerus 44.8398 -11.2832 51.0758
lradius 70.2168
lwrist -5.24167
lhand -7.46816 14.5215
lfingers 7.12502
lthumb 18.4205 43.6694
rfemur -46.3679 5.37612 17.6012
rtibia 50.6541
rfoot -13.8289 -9.3806
rtoes -17.1012
lfemur -47.497 0.0584604 -10.523
ltibia 50.2434
lfoot -11.0891 -3.17485
ltoes -13.495
1590
root 0.143669 15.06 -2.62447 14.0174 1.82998 -3.46923
lowerback 37.7049 1.07305 -5.76811
upperback 12.3667 -1.1747 -5.81485
thorax -4.83427 -0.481121 -2.72838
lowerneck -8.61367 -7.80112 -11.6818
upperneck 11.9392 -11.7164 19.2257
head 6.93732 -5.01064 7.09817
rclavicle 1.11319e-014 -6.36111e-015
rhumerus 10.915 9.54501 -12.5902
rradius 135.545
rwrist -37.7389
rhand 28.2111 12.0547
rfingers 7.12502
rthumb 52.0917 -7.99636
lclavicle 1.11319e-014 -6.36111e-015
lhumerus 44.054 -13.045 49.3708
lradius 68.247
lwrist -4.48133
lhand -6.30673 15.361
lfingers 7.12502
lthumb 19.5375 44.3993
rfemur -46.4222 5.32837 17.4523
rtibia 50.5502
rfoot -13.7397 -9.37423
rtoes -16.6834
lfemur -47.5287 -0.041762 -10.6436
ltibia 50.0493
lfoot -11.0052 -3.09561
ltoes -13.6454
1591
root 0.150207 15.0598 -2.63591 14.08 2.02882 -3.35285
lowerback 37.8365 1.03076 -5.49051
upperback 12.3713 -1.11957 -5.61409
thorax -4.87685 -0.452771 -2.6791
lowerneck -8.64533 -7.79426 -11.5991
upperneck 11.4073 -11.6752 19.4524
head 6.7816 -4.99125 7.15651
rclavicle 1.59028e-014 2.78299e-014
rhumerus 13.5103 6.54885 -12.0756
rradius 134.331
rwrist -37.1985
rhand 27.5826 12.1437
rfingers 7.12502
rthumb 51.5211 -8.24213
lclavicle 1.59028e-014 2.78299e-014
lhumerus 43.2308 -14.9351 47.4604
lradius 66.3629
lwrist -4.09078
lhand -5.07596 16.3467
lfingers 7.12502
lthumb 20.7204 45.2605
rfemur -46.4529 5.17335 17.2936
rtibia 50.4685
rfoot -13.7127 -9.39769
rtoes -17.3833
lfemur -47.649 -0.246438 -10.774
ltibia 49.9046
lfoot -10.9151 -3.04818
ltoes -14.1654
1592
root 0.153051 15.0615 -2.65242 14.1838 2.33082 -3.34449
lowerback 37.7973 0.936815 -5.17455
upperback 12.5049 -1.07793 -5.30123
thorax -4.71895 -0.438203 -2.52498
lowerneck -8.80635 -7.80435 -11.6053
upperneck 10.7809 -11.6237 19.6972
head 6.62596 -4.96735 7.23227
rclavicle 1.74931e-014 -7.95139e-015
rhumerus 16.6578 3.28122 -11.9297
rradius 132.585
rwrist -35.8906
rhand 27.5112 11.944
rfingers 7.12502
rthumb 51.4561 -8.4792
lclavicle 1.74931e-014 -7.95139e-015
lhumerus 42.3133 -16.7867 45.5302
lradius 64.6881
lwrist -3.97151
lhand -2.98711 17.3707
lfingers 7.12502
lthumb 22.7263 46.0523
rfemur -46.5033 4.99036 17.2828
rtibia 50.3649
rfoot -13.693 -9.48038
rtoes -17.6902
lfemur -47.855 -0.471157 -10.7364
ltibia 49.7629
lfoot -10.7492 -3.09528
ltoes -14.4016
1593
root 0.161739 15.0658 -2.66441 14.2597 2.55352 -3.36522
lowerback 38.0093 0.536532 -5.90468
upperback 12.6834 -1.73441 -4.37831
thorax -4.52461 -0.80666 -0.942061
lowerneck -10.5926 -7.46416 -13.2863
upperneck 10.9556 -10.7853 19.7238
head 6.95528 -4.52849 7.60097
rclavicle -5.88403e-014 -5.08889e-014
rhumerus 22.7051 -0.264345 -11.7798
rradius 130.532
rwrist -34.8325
rhand 28.511 11.7952
rfingers 7.12502
rthumb 52.3634 -8.09209
lclavicle -5.88403e-014 -5.08889e-014
lhumerus 39.4756 -16.8366 44.7251
lradius 63.2354
lwrist -4.23398
lhand -0.915555 18.3849
lfingers 7.12502
lthumb 24.7131 46.8087
rfemur -46.5462 4.79016 17.2836
rtibia 50.2655
rfoot -13.7325 -9.3999
rtoes -17.314
lfemur -47.9836 -0.684009 -10.6961
ltibia 49.6426
lfoot -10.6097 -3.06969
ltoes -14.0689
1594
root 0.17535 15.0715 -2.67179 14.2852 2.66294 -3.30882
lowerback 38.1592 0.494781 -5.531
upperback 12.7569 -1.63833 -4.12159
thorax -4.50234 -0.761035 -0.897675
lowerneck -10.7696 -7.5566 -13.1916
upperneck 10.2955 -10.8476 19.9064
head 6.80125 -4.55489 7.62113
rclavicle 7.95139e-015 0
rhumerus 25.8182 -3.77305 -12.612
rradius 128.657
rwrist -34.0113
rhand 30.8128 11.5297
rfingers 7.12502
rthumb 54.4361 -7.00912
lclavicle 7.95139e-015 0
lhumerus 38.1216 -19.4181 42.785
lradius 62.3932
lwrist -4.33731
lhand 1.33328 19.5972
lfingers 7.12502
lthumb 26.8668 47.7081
rfemur -46.5298 4.56435 17.1976
rtibia 50.1475
rfoot -13.7065 -9.27662
rtoes -17.5368
lfemur -47.9973 -0.907426 -10.764
ltibia 49.5098
lfoot -10.5989 -2.94724
ltoes -14.0673
1595
root 0.189747 15.0767 -2.67854 14.2968 2.69784 -3.27277
lowerback 38.223 0.39944 -5.02219
upperback 12.9252 -1.5604 -4.01124
thorax -4.35861 -0.718316 -1.07171
lowerneck -11.0083 -7.66731 -12.9884
upperneck 9.57608 -10.955 20.2005
head 6.65125 -4.59315 7.65348
rclavicle -2.54444e-014 -1.27222e-014
rhumerus 28.9632 -6.94373 -14.03
rradius 126.541
rwrist -31.9373
rhand 32.18 11.4733
rfingers 7.12502
rthumb 55.6554 -6.18038
lclavicle -2.54444e-014 -1.27222e-014
lhumerus 36.7831 -22.1614 40.5757
lradius 62.1186
lwrist -4.48566
lhand 3.98904 21.1861
lfingers 7.12502
lthumb 29.4052 48.8795
rfemur -46.4977 4.43645 17.1204
rtibia 50.0389
rfoot -13.6344 -9.21752
rtoes -17.8265
lfemur -47.9691 -1.06018 -10.8347
ltibia 49.3749
lfoot -10.5784 -2.78631
ltoes -14.2769
1596
root 0.203418 15.0823 -2.68483 14.3304 2.69581 -3.16619
lowerback 38.3483 0.284263 -4.61788
upperback 13.0993 -1.54537 -3.88467
thorax -4.22116 -0.707545 -1.15308
lowerneck -11.246 -7.73961 -12.8024
upperneck 8.65544 -10.9692 20.4636
head 6.42235 -4.59848 7.68705
rclavicle 3.65764e-014 6.2816e-014
rhumerus 32.3308 -9.3751 -15.6412
rradius 124.176
rwrist -27.7282
rhand 31.7922 11.8393
rfingers 7.12502
rthumb 55.3106 -6.07233
lclavicle 3.65764e-014 6.2816e-014
lhumerus 35.1582 -24.9565 38.5938
lradius 62.3018
lwrist -4.24952
lhand 6.6067 22.9625
lfingers 7.12502
lthumb 31.9012 50.1882
rfemur -46.5083 4.35173 16.943
rtibia 49.9619
rfoot -13.6442 -9.1139
rtoes -17.5865
lfemur -47.9499 -1.18002 -10.9863
ltibia 49.2314
lfoot -10.4744 -2.70294
ltoes -14.3127
